<svg width="154" height="36" viewBox="0 0 154 36" fill="none" xmlns="http://www.w3.org/2000/svg">
<path d="M6.80083 34.7991C6.5578 34.9122 6.13917 35.0036 5.64809 35.0036C4.1225 35.0036 3.10059 34.0423 3.10059 32.2367C3.10059 30.6672 4.10841 29.3926 5.85036 29.3926C6.2242 29.3926 6.62875 29.4707 6.83002 29.5734L6.61164 30.2739C6.46874 30.2175 6.18093 30.1262 5.82117 30.1262C4.69762 30.1262 4.20754 31.1646 4.20754 32.2367C4.20754 33.5136 4.82743 34.2799 5.85036 34.2799C6.13918 34.2799 6.3973 34.2349 6.64183 34.1327L6.80083 34.7991Z" fill="#12110C"/>
<path d="M15.7277 34.3359C16.6767 34.3359 16.878 33.0603 16.878 32.2027C16.878 31.3559 16.6767 30.069 15.6986 30.069C14.7048 30.069 14.5187 31.3559 14.5187 32.2027C14.5187 33.1053 14.7209 34.3359 15.7147 34.3359H15.7277ZM15.6704 35.0245C14.416 35.0245 13.4092 34.1314 13.4092 32.2136C13.4092 30.2167 14.5458 29.3809 15.7403 29.3809C16.9947 29.3809 17.9889 30.2825 17.9889 32.1918C17.9889 34.3117 16.7497 35.0245 15.6835 35.0245H15.6704Z" fill="#12110C"/>
<path d="M25.2751 30.8822C25.2751 30.239 25.2309 29.911 25.2178 29.4703H26.1964L26.2513 30.1367H26.2804C26.5844 29.6966 27.1026 29.3809 27.8377 29.3809C28.4853 29.3809 29.0468 29.6175 29.3075 30.2049H29.3341C29.5223 29.9342 29.7658 29.7197 30.0114 29.5844C30.2987 29.449 30.6157 29.3809 30.977 29.3809C31.9249 29.3809 32.6615 29.911 32.6615 31.3124V34.9336H31.5521V31.5036C31.5521 30.7918 31.4213 30.1036 30.5885 30.1036C30.1256 30.1036 29.7236 30.4084 29.5646 30.9271C29.5223 31.0625 29.5223 31.2319 29.5223 31.4132V34.9336H28.4129V31.3451C28.4129 30.7468 28.2845 30.1036 27.4639 30.1036C27.003 30.1036 26.5567 30.4084 26.4254 30.9944C26.3977 31.1307 26.3836 31.2878 26.3836 31.4587V34.9336H25.2751V30.8822H25.2751Z" fill="#12110C"/>
<path d="M40.2488 30.8822C40.2488 30.239 40.2045 29.911 40.1904 29.4703H41.1691L41.2285 30.1367H41.2566C41.5595 29.6966 42.0798 29.3809 42.8114 29.3809C43.459 29.3809 44.0215 29.6175 44.2796 30.2049H44.3103C44.496 29.9342 44.7395 29.7197 44.9861 29.5844C45.2749 29.449 45.5904 29.3809 45.9481 29.3809C46.9001 29.3809 47.6352 29.911 47.6352 31.3124V34.9336H46.5257V31.5036C46.5257 30.7918 46.3969 30.1036 45.5622 30.1036C45.1028 30.1036 44.6983 30.4084 44.5393 30.9271C44.496 31.0625 44.496 31.2319 44.496 31.4132V34.9336H43.388V31.3451C43.388 30.7468 43.2592 30.1036 42.4386 30.1036C41.9767 30.1036 41.5304 30.4084 41.4005 30.9944C41.3734 31.1307 41.3573 31.2878 41.3573 31.4587V34.9336H40.2488V30.8822Z" fill="#12110C"/>
<path d="M59.3992 33.445C59.3992 34.0423 59.4435 34.5284 59.4576 34.934H58.493L58.4065 34.358H58.3773C58.175 34.6292 57.6422 35.0254 56.894 35.0254C55.6849 35.0254 55.1953 34.2799 55.1953 32.9258V29.4707H56.3048V32.8018C56.3048 33.6485 56.4764 34.2917 57.2412 34.2917C57.8877 34.2917 58.175 33.8166 58.2349 33.5581C58.2767 33.41 58.2908 33.2524 58.2908 33.0721V29.4707H59.3992V33.445Z" fill="#12110C"/>
<path d="M67.0017 30.8822C67.0017 30.239 66.9584 29.911 66.9443 29.4703H67.9089L67.9673 30.1254H67.9954C68.2983 29.6857 68.8584 29.3809 69.5925 29.3809C70.558 29.3809 71.2781 29.9342 71.2781 31.2651V34.9336H70.1686V31.4132C70.1686 30.7577 70.0121 30.1145 69.204 30.1145C68.7446 30.1145 68.2983 30.4193 68.1695 31.0066C68.1252 31.1307 68.1102 31.2992 68.1102 31.4913V34.9336H67.0017V30.8822H67.0017Z" fill="#12110C"/>
<path d="M78.8804 29.4692H79.9898V34.9325H78.8804V29.4692ZM79.4007 28.6249C79.0384 28.6249 78.7646 28.3981 78.7646 28.0597C78.7646 27.7209 79.0525 27.4941 79.4137 27.4941C79.8158 27.4941 80.0754 27.7209 80.0754 28.0597C80.0754 28.3981 79.8158 28.6249 79.4137 28.6249H79.4007Z" fill="#12110C"/>
<path d="M90.9756 34.7991C90.7311 34.9122 90.314 35.0036 89.8239 35.0036C88.2983 35.0036 87.2754 34.0423 87.2754 32.2367C87.2754 30.6672 88.2832 29.3926 90.0252 29.3926C90.399 29.3926 90.8025 29.4707 91.0058 29.5734L90.7884 30.2739C90.6445 30.2175 90.3562 30.1262 89.996 30.1262C88.8734 30.1262 88.3839 31.1646 88.3839 32.2367C88.3839 33.5136 89.0032 34.2799 90.0252 34.2799C90.314 34.2799 90.5721 34.2349 90.8166 34.1327L90.9756 34.7991Z" fill="#12110C"/>
<path d="M100.564 32.1004C99.99 32.1004 98.6501 32.1918 98.6501 33.376C98.6501 34.0987 99.111 34.3463 99.4979 34.3463C99.99 34.3463 100.394 34.0646 100.522 33.5222C100.55 33.421 100.564 33.3078 100.564 33.2065V32.1004ZM101.644 33.6917C101.644 34.1096 101.644 34.5834 101.718 34.9331H100.723L100.651 34.3571H100.608C100.305 34.776 99.8169 35.0245 99.2267 35.0245C98.2913 35.0245 97.5713 34.4153 97.5713 33.4664C97.5713 32.0895 98.966 31.4913 100.535 31.4799V31.3119C100.535 30.5759 100.305 30.069 99.4274 30.069C98.9952 30.069 98.6068 30.1703 98.2752 30.3506L98.0297 29.7415C98.3336 29.5721 98.966 29.3809 99.6594 29.3809C101.055 29.3809 101.644 30.1031 101.644 31.3219V33.6917Z" fill="#12110C"/>
<path d="M110.487 28.1953V29.4699H111.824V30.1254H110.487V33.3761C110.487 34.0988 110.804 34.2791 111.205 34.2791C111.394 34.2791 111.537 34.2683 111.653 34.2451L111.712 34.9115C111.509 34.9687 111.25 35.0028 110.89 35.0028C110.443 35.0028 110.055 34.9115 109.796 34.6739C109.506 34.4254 109.376 34.0534 109.376 33.298V30.1254H108.529V29.4699H109.376V28.546L110.487 28.1953Z" fill="#12110C"/>
<path d="M118.852 29.4692H119.961V34.9325H118.852V29.4692ZM119.37 28.6249C119.01 28.6249 118.737 28.3981 118.737 28.0597C118.737 27.7209 119.025 27.4941 119.384 27.4941C119.788 27.4941 120.047 27.7209 120.047 28.0597C120.047 28.3981 119.788 28.6249 119.384 28.6249H119.37Z" fill="#12110C"/>
<path d="M129.566 34.3359C130.515 34.3359 130.716 33.0603 130.716 32.2027C130.716 31.3559 130.515 30.069 129.535 30.069C128.541 30.069 128.354 31.3559 128.354 32.2027C128.354 33.1053 128.555 34.3359 129.55 34.3359H129.566ZM129.506 35.0245C128.255 35.0245 127.247 34.1314 127.247 32.2136C127.247 30.2167 128.382 29.3809 129.578 29.3809C130.831 29.3809 131.824 30.2825 131.824 32.1918C131.824 34.3117 130.587 35.0245 129.522 35.0245H129.506Z" fill="#12110C"/>
<path d="M139.112 30.8822C139.112 30.239 139.068 29.911 139.052 29.4703H140.02L140.075 30.1254H140.105C140.407 29.6857 140.969 29.3809 141.702 29.3809C142.668 29.3809 143.387 29.9342 143.387 31.2651V34.9336H142.279V31.4132C142.279 30.7577 142.12 30.1145 141.314 30.1145C140.854 30.1145 140.407 30.4193 140.277 31.0066C140.235 31.1307 140.221 31.2992 140.221 31.4913V34.9336H139.112V30.8822Z" fill="#12110C"/>
<path d="M150.803 34.0306C151.046 34.155 151.479 34.3122 151.927 34.3122C152.546 34.3122 152.947 34.0088 152.947 33.5227C152.947 33.1057 152.76 32.8123 152.055 32.4512C151.149 31.9883 150.659 31.5145 150.659 30.8931C150.659 30.0023 151.495 29.3809 152.573 29.3809C153.122 29.3809 153.525 29.5162 153.813 29.6625L153.525 30.318C153.25 30.1703 152.961 30.0695 152.587 30.0695C151.999 30.0695 151.694 30.4079 151.694 30.77C151.694 31.1306 151.867 31.3451 152.558 31.7057C153.366 32.1128 154 32.6206 154 33.376C154 34.4717 153.049 35.0027 151.895 35.0027C151.393 35.0027 150.833 34.8773 150.529 34.6852L150.803 34.0306Z" fill="#12110C"/>
<path d="M8.69563 23.5189V3.81152H0V0.679688H22.4571V3.81152H13.764V23.5189H8.69563Z" fill="#12110C"/>
<path d="M25.0156 23.5189V0.679688H40.1909V3.81152H30.0684V10.1855H38.368V13.2406H30.0684V20.2782H40.9613V23.5189H25.0156Z" fill="#12110C"/>
<path d="M44.3535 23.5189V0.679688H49.2075V11.7592L58.4938 0.679688H62.6947L54.2779 10.9271L64.7275 23.5189H58.4123L49.2075 12.285V23.5189H44.3535Z" fill="#12110C"/>
<path d="M68.6828 23.5189V3.81152H59.9902V0.679688H82.4468V3.81152H73.7532V23.5189H68.6828Z" fill="#12110C"/>
<path d="M85.0049 23.5189V0.679688H100.178V3.81152H90.0576V10.1855H98.3563V13.2406H90.0576V20.2782H100.949V23.5189H85.0049Z" fill="#12110C"/>
<path d="M104.341 23.5189V0.679688H109.395V20.2782H120.334V23.5189H104.341Z" fill="#12110C"/>
<path d="M128.093 0.679688H123.041V23.5189H128.093V0.679688Z" fill="#12110C"/>
<path d="M152.879 22.6429C150.527 23.6317 147.719 24.1253 144.462 24.1253C140.48 24.1253 137.38 23.0717 135.16 20.9613C132.94 18.8532 131.829 15.9116 131.829 12.1352C131.829 8.28722 132.949 5.32766 135.184 3.25365C137.422 1.18153 140.611 0.144531 144.755 0.144531C147.401 0.144531 150.034 0.438449 152.647 1.0244V4.74266C149.684 3.76624 147.201 3.27779 145.2 3.27779C142.641 3.27779 140.666 4.04217 139.276 5.56951C137.887 7.09733 137.193 9.26459 137.193 12.0736C137.193 14.8306 137.941 16.9794 139.434 18.5233C140.927 20.0672 143.002 20.8382 145.661 20.8382C148.043 20.8382 150.448 20.2741 152.879 19.1405V22.6429Z" fill="#12110C"/>
</svg>
