<svg width="50" height="50" viewBox="0 0 50 50" fill="none" xmlns="http://www.w3.org/2000/svg">
<mask id="path-2-inside-1" fill="white">
<path fill-rule="evenodd" clip-rule="evenodd" d="M12.5002 22C-7.62499 9.16618 6.30368 -0.850593 12.2692 4.44786C12.3479 4.51752 12.4254 4.58972 12.5002 4.66446C12.5742 4.58979 12.6513 4.51796 12.7312 4.44912C18.6954 -0.853126 32.6254 9.16491 12.5002 22Z"/>
</mask>
<path fill-rule="evenodd" clip-rule="evenodd" d="M12.5002 22C-7.62499 9.16618 6.30368 -0.850593 12.2692 4.44786C12.3479 4.51752 12.4254 4.58972 12.5002 4.66446C12.5742 4.58979 12.6513 4.51796 12.7312 4.44912C18.6954 -0.853126 32.6254 9.16491 12.5002 22Z" fill="#2CABE1"/>
<path d="M12.5002 22L4.43502 34.6473L12.5006 39.7907L20.5659 34.6469L12.5002 22ZM12.2692 4.44786L2.30814 15.6629L2.31931 15.6728L2.3305 15.6827L12.2692 4.44786ZM12.5002 4.66446L1.89937 15.2768L12.5496 25.9154L23.1502 15.2275L12.5002 4.66446ZM12.7312 4.44912L22.5223 15.8128L22.6105 15.7369L22.6974 15.6596L12.7312 4.44912ZM20.5653 9.35274C16.7207 6.90102 16.1135 5.56182 16.3457 5.9935C16.7893 6.81846 17.7172 9.71077 16.034 13.0987C14.5978 15.9893 12.1417 17.3776 10.1191 17.8136C8.01639 18.2668 4.92218 17.9847 2.30814 15.6629L22.2302 -6.76721C11.355 -16.4264 -5.0266 -11.9356 -10.8326 -0.250025C-14.2281 6.58399 -13.3817 14.0557 -10.0759 20.2027C-6.98158 25.9565 -1.78294 30.6821 4.43502 34.6473L20.5653 9.35274ZM2.3305 15.6827C2.21395 15.5796 2.06687 15.4442 1.89937 15.2768L23.101 -5.94794C22.7839 -6.26472 22.4819 -6.54459 22.2079 -6.78703L2.3305 15.6827ZM23.1502 15.2275C22.9477 15.4316 22.7382 15.6268 22.5223 15.8128L2.94006 -6.91458C2.56438 -6.59089 2.20074 -6.25202 1.85016 -5.89854L23.1502 15.2275ZM22.6974 15.6596C20.0841 17.9828 16.9886 18.2668 14.8836 17.8135C12.8592 17.3776 10.4025 15.9886 8.96617 13.0979C7.28283 9.71023 8.21061 6.81821 8.65405 5.99352C8.88612 5.56192 8.27892 6.90124 4.43446 9.3531L20.5659 34.6469C26.784 30.6812 31.9825 25.9551 35.0765 20.201C38.3819 14.0537 39.2279 6.582 35.8322 -0.251805C30.0254 -11.9379 13.6396 -16.4291 2.76494 -6.76131L22.6974 15.6596Z" fill="#2CABE1" mask="url(#path-2-inside-1)"/>

<path d="M34.9721 16.9439L35.1999 16.7004V15.4996L31.4684 7.84375H29.7314L26 15.4996V16.7589L26.2029 16.9729C26.7601 17.5593 27.436 18.0274 28.1882 18.3478C28.9404 18.6682 29.7527 18.834 30.574 18.8348H30.5941C31.4187 18.8313 32.2337 18.6614 32.9873 18.3359C33.7409 18.0104 34.4167 17.5364 34.9721 16.9439V16.9439ZM33.6665 16.1147C32.8485 16.9043 31.7418 17.3467 30.5889 17.3447H30.573C29.4404 17.3502 28.3501 16.9267 27.5333 16.164V15.8349L30.5999 9.54295L33.6665 15.8349V16.1147Z" fill="#2CABE1"/>
<path d="M45.2692 7.84375H43.5322L39.8008 15.4996V16.7589L40.0037 16.9729C40.5609 17.5593 41.2368 18.0274 41.989 18.3478C42.7412 18.6682 43.5535 18.834 44.3747 18.8348H44.3949C45.2195 18.8313 46.0345 18.6614 46.7881 18.3358C47.5417 18.0103 48.2175 17.5363 48.7729 16.9438L49.0006 16.7004V15.4996L45.2692 7.84375ZM47.4673 16.1147C46.6493 16.9043 45.5426 17.3467 44.3896 17.3447H44.3738C43.2412 17.3502 42.1508 16.9267 41.3341 16.164V15.8349L44.4007 9.54295L47.4673 15.8349V16.1147Z" fill="#2CABE1"/>
<path d="M38.2672 8.10668C38.6937 7.98209 39.0817 7.75669 39.3966 7.45064C39.7115 7.14459 39.9435 6.76745 40.0716 6.35295H45.1671V4.86276H40.0716C39.9066 4.32458 39.5672 3.85256 39.104 3.51693C38.6407 3.1813 38.0783 3 37.5005 3C36.9227 3 36.3603 3.1813 35.8971 3.51693C35.4338 3.85256 35.0944 4.32458 34.9294 4.86276H29.834V6.35295H34.9294C35.0576 6.76745 35.2895 7.14459 35.6044 7.45064C35.9193 7.75669 36.3074 7.98209 36.7339 8.10668V20.5098H31.7506V22H43.2504V20.5098H38.2672V8.10668ZM36.3505 5.60785C36.3505 5.3868 36.418 5.17072 36.5444 4.98692C36.6707 4.80313 36.8503 4.65987 37.0604 4.57528C37.2706 4.49069 37.5018 4.46856 37.7249 4.51168C37.948 4.55481 38.1529 4.66125 38.3137 4.81756C38.4745 4.97386 38.584 5.17301 38.6284 5.38981C38.6728 5.60661 38.65 5.83134 38.563 6.03556C38.4759 6.23978 38.3285 6.41433 38.1394 6.53714C37.9503 6.65995 37.728 6.7255 37.5005 6.7255C37.1955 6.7255 36.903 6.60775 36.6874 6.39815C36.4717 6.18855 36.3505 5.90427 36.3505 5.60785Z" fill="#2CABE1"/>
<mask id="path-9-inside-2" fill="white">
<path fill-rule="evenodd" clip-rule="evenodd" d="M12.5002 31.4809L11.5591 30.5473C9.35009 28.356 5.29959 29.1122 3.83742 31.8672C3.15096 33.163 2.99608 35.0338 4.24956 37.4215C5.45709 39.7205 7.96929 42.4742 12.5002 45.4737C17.0311 42.4742 19.542 39.7205 20.7508 37.4215C22.0043 35.0326 21.8507 33.163 21.1629 31.8672C19.7008 29.1122 15.6503 28.3547 13.4413 30.5461L12.5002 31.4809ZM12.5002 47C-7.62499 34.1662 6.30368 24.1494 12.2692 29.4479C12.3479 29.5175 12.4254 29.5897 12.5002 29.6645C12.5742 29.5898 12.6513 29.518 12.7312 29.4491C18.6954 24.1469 32.6254 34.1649 12.5002 47Z"/>
</mask>
<path fill-rule="evenodd" clip-rule="evenodd" d="M12.5002 31.4809L11.5591 30.5473C9.35009 28.356 5.29959 29.1122 3.83742 31.8672C3.15096 33.163 2.99608 35.0338 4.24956 37.4215C5.45709 39.7205 7.96929 42.4742 12.5002 45.4737C17.0311 42.4742 19.542 39.7205 20.7508 37.4215C22.0043 35.0326 21.8507 33.163 21.1629 31.8672C19.7008 29.1122 15.6503 28.3547 13.4413 30.5461L12.5002 31.4809ZM12.5002 47C-7.62499 34.1662 6.30368 24.1494 12.2692 29.4479C12.3479 29.5175 12.4254 29.5897 12.5002 29.6645C12.5742 29.5898 12.6513 29.518 12.7312 29.4491C18.6954 24.1469 32.6254 34.1649 12.5002 47Z" fill="#2CABE1"/>
<path d="M12.5002 31.4809L1.93644 42.1301L12.5073 52.6161L23.0711 42.123L12.5002 31.4809ZM11.5591 30.5473L0.995187 41.1964L0.995349 41.1966L11.5591 30.5473ZM3.83742 31.8672L-9.41215 24.8352L-9.4175 24.8453L3.83742 31.8672ZM4.24956 37.4215L-9.03152 44.3938L-9.03007 44.3966L4.24956 37.4215ZM12.5002 45.4737L4.22011 57.9813L12.5002 63.4627L20.7802 57.9813L12.5002 45.4737ZM20.7508 37.4215L34.0273 44.4025L34.0334 44.3909L20.7508 37.4215ZM21.1629 31.8672L7.91338 38.8992L7.91358 38.8996L21.1629 31.8672ZM13.4413 30.5461L2.87737 19.8969L2.87032 19.9039L13.4413 30.5461ZM12.5002 47L4.43502 59.6473L12.5006 64.7907L20.5659 59.6469L12.5002 47ZM12.2692 29.4479L2.30814 40.6629L2.31931 40.6728L2.3305 40.6827L12.2692 29.4479ZM12.5002 29.6645L1.89937 40.2768L12.5496 50.9154L23.1502 40.2275L12.5002 29.6645ZM12.7312 29.4491L22.5223 40.8128L22.6105 40.7369L22.6974 40.6596L12.7312 29.4491ZM23.0639 20.8316L22.1228 19.898L0.995349 41.1966L1.93644 42.1301L23.0639 20.8316ZM22.123 19.8982C16.9805 14.7969 10.2204 13.6267 4.81309 14.5803C-0.561741 15.5282 -6.22392 18.828 -9.41215 24.8352L17.087 38.8992C15.3609 42.1514 12.4551 43.6956 10.0233 44.1244C7.55898 44.559 3.92867 44.1065 0.995187 41.1964L22.123 19.8982ZM-9.4175 24.8453C-12.7944 31.2196 -12.1893 38.3788 -9.03152 44.3938L17.5306 30.4492C17.7743 30.9134 18.249 32.0396 18.307 33.7155C18.3667 35.4371 17.9645 37.2427 17.0923 38.8891L-9.4175 24.8453ZM-9.03007 44.3966C-6.22628 49.7346 -1.50147 54.1936 4.22011 57.9813L20.7802 32.9661C19.1931 31.9153 18.2573 31.1024 17.7564 30.5995C17.247 30.0881 17.3012 30.0123 17.5292 30.4464L-9.03007 44.3966ZM20.7802 57.9813C26.5057 54.191 31.2242 49.7335 34.0273 44.4025L7.4743 30.4405C7.70004 30.0112 7.75186 30.089 7.24285 30.6002C6.74196 31.1031 5.80657 31.9158 4.22011 32.9661L20.7802 57.9813ZM34.0334 44.3909C37.184 38.3863 37.8027 31.2226 34.4123 24.8348L7.91358 38.8996C7.03693 37.2479 6.63387 35.4369 6.69393 33.7123C6.75234 32.0352 7.22752 30.9108 7.46821 30.4521L34.0334 44.3909ZM34.4125 24.8352C31.2251 18.8295 25.5646 15.5292 20.1904 14.5802C14.7833 13.6255 8.02143 14.794 2.87737 19.8969L24.0052 41.1952C21.0701 44.1067 17.438 44.5583 14.974 44.1233C12.5428 43.694 9.63865 42.1499 7.91338 38.8992L34.4125 24.8352ZM2.87032 19.9039L1.92923 20.8387L23.0711 42.123L24.0122 41.1882L2.87032 19.9039ZM20.5653 34.3527C16.7207 31.901 16.1135 30.5618 16.3457 30.9935C16.7893 31.8185 17.7172 34.7108 16.034 38.0987C14.5978 40.9893 12.1417 42.3776 10.1191 42.8136C8.01639 43.2668 4.92218 42.9847 2.30814 40.6629L22.2302 18.2328C11.355 8.57363 -5.0266 13.0644 -10.8326 24.75C-14.2281 31.584 -13.3817 39.0557 -10.0759 45.2027C-6.98158 50.9565 -1.78294 55.6821 4.43502 59.6473L20.5653 34.3527ZM2.3305 40.6827C2.21395 40.5796 2.06687 40.4442 1.89937 40.2768L23.101 19.0521C22.7839 18.7353 22.4819 18.4554 22.2079 18.213L2.3305 40.6827ZM23.1502 40.2275C22.9477 40.4316 22.7382 40.6268 22.5223 40.8128L2.94006 18.0854C2.56438 18.4091 2.20074 18.748 1.85016 19.1015L23.1502 40.2275ZM22.6974 40.6596C20.0841 42.9828 16.9886 43.2668 14.8836 42.8135C12.8592 42.3776 10.4025 40.9886 8.96617 38.0979C7.28283 34.7102 8.21061 31.8182 8.65405 30.9935C8.88612 30.5619 8.27892 31.9012 4.43446 34.3531L20.5659 59.6469C26.784 55.6812 31.9825 50.9551 35.0765 45.201C38.3819 39.0537 39.2279 31.582 35.8322 24.7482C30.0254 13.0621 13.6396 8.57095 2.76494 18.2387L22.6974 40.6596Z" fill="#2CABE1" mask="url(#path-9-inside-2)"/>
<path d="M34.9721 41.9439L35.1999 41.7004V40.4996L31.4684 32.8438H29.7314L26 40.4996V41.7589L26.2029 41.9729C26.7601 42.5593 27.436 43.0274 28.1882 43.3478C28.9404 43.6682 29.7527 43.834 30.574 43.8348H30.5941C31.4187 43.8313 32.2337 43.6614 32.9873 43.3359C33.7409 43.0104 34.4167 42.5364 34.9721 41.9439V41.9439ZM33.6665 41.1147C32.8485 41.9043 31.7418 42.3467 30.5889 42.3447H30.573C29.4404 42.3502 28.3501 41.9267 27.5333 41.164V40.8349L30.5999 34.5429L33.6665 40.8349V41.1147Z" fill="#626262"/>
<path d="M45.2692 32.8438H43.5322L39.8008 40.4996V41.7589L40.0037 41.9729C40.5609 42.5593 41.2368 43.0274 41.989 43.3478C42.7412 43.6682 43.5535 43.834 44.3747 43.8348H44.3949C45.2195 43.8313 46.0345 43.6614 46.7881 43.3358C47.5417 43.0103 48.2175 42.5363 48.7729 41.9438L49.0006 41.7004V40.4996L45.2692 32.8438ZM47.4673 41.1147C46.6493 41.9043 45.5426 42.3467 44.3896 42.3447H44.3738C43.2412 42.3502 42.1508 41.9267 41.3341 41.164V40.8349L44.4007 34.5429L47.4673 40.8349V41.1147Z" fill="#626262"/>
<path d="M38.2672 33.1067C38.6937 32.9821 39.0817 32.7567 39.3966 32.4506C39.7115 32.1446 39.9435 31.7674 40.0716 31.353H45.1671V29.8628H40.0716C39.9066 29.3246 39.5672 28.8526 39.104 28.5169C38.6407 28.1813 38.0783 28 37.5005 28C36.9227 28 36.3603 28.1813 35.8971 28.5169C35.4338 28.8526 35.0944 29.3246 34.9294 29.8628H29.834V31.353H34.9294C35.0576 31.7674 35.2895 32.1446 35.6044 32.4506C35.9193 32.7567 36.3074 32.9821 36.7339 33.1067V45.5098H31.7506V47H43.2504V45.5098H38.2672V33.1067ZM36.3505 30.6079C36.3505 30.3868 36.418 30.1707 36.5444 29.9869C36.6707 29.8031 36.8503 29.6599 37.0604 29.5753C37.2706 29.4907 37.5018 29.4686 37.7249 29.5117C37.948 29.5548 38.1529 29.6613 38.3137 29.8176C38.4745 29.9739 38.584 30.173 38.6284 30.3898C38.6728 30.6066 38.65 30.8313 38.563 31.0356C38.4759 31.2398 38.3285 31.4143 38.1394 31.5371C37.9503 31.66 37.728 31.7255 37.5005 31.7255C37.1955 31.7255 36.903 31.6077 36.6874 31.3981C36.4717 31.1885 36.3505 30.9043 36.3505 30.6079Z" fill="#626262"/>
</svg>
